<?xml version="1.0" encoding="UTF-8" standalone="no"?>
<svg width="32" height="32" viewBox="0 0 32 32" xmlns="http://www.w3.org/2000/svg">
  <defs>
    <!-- Premium Corporate Gradients -->
    <linearGradient id="premiumGradient" x1="0%" y1="0%" x2="100%" y2="100%">
      <stop offset="0%" style="stop-color:#1e3a8a;stop-opacity:1" />
      <stop offset="50%" style="stop-color:#3b82f6;stop-opacity:1" />
      <stop offset="100%" style="stop-color:#60a5fa;stop-opacity:1" />
    </linearGradient>
    <linearGradient id="accentGradient" x1="0%" y1="0%" x2="100%" y2="0%">
      <stop offset="0%" style="stop-color:#d4af37;stop-opacity:1" />
      <stop offset="100%" style="stop-color:#ffd700;stop-opacity:1" />
    </linearGradient>
  </defs>
  
  <!-- Background -->
  <rect width="32" height="32" fill="#ffffff" rx="6"/>
  
  <!-- Logo Symbol - Sophisticated Hexagon -->
  <g transform="translate(6, 6)">
    <!-- Outer hexagon -->
    <path d="M10 1 L16 5 L16 13 L10 17 L4 13 L4 5 Z" fill="none" stroke="url(#premiumGradient)" stroke-width="1.5"/>
    <!-- Inner structure -->
    <path d="M10 4 L14 7 L14 11 L10 14 L6 11 L6 7 Z" fill="url(#premiumGradient)" opacity="0.15"/>
    <!-- Central AI core -->
    <circle cx="10" cy="9" r="2" fill="url(#accentGradient)"/>
    <!-- Data connection points -->
    <circle cx="10" cy="3" r="0.8" fill="url(#premiumGradient)"/>
    <circle cx="14.5" cy="6" r="0.8" fill="url(#premiumGradient)"/>
    <circle cx="14.5" cy="12" r="0.8" fill="url(#premiumGradient)"/>
    <circle cx="10" cy="15" r="0.8" fill="url(#premiumGradient)"/>
    <circle cx="5.5" cy="12" r="0.8" fill="url(#premiumGradient)"/>
    <circle cx="5.5" cy="6" r="0.8" fill="url(#premiumGradient)"/>
  </g>
</svg>